<svg width="345" height="60" viewBox="0 0 345 60" fill="none" xmlns="http://www.w3.org/2000/svg">
<rect y="52" width="8" height="8" fill="#FCCB70"/>
<rect x="16" y="44" width="8" height="8" fill="#FCCB70"/>
<rect x="16" y="20" width="8" height="8" fill="#FCCB70"/>
<rect x="56" y="38" width="8" height="6" fill="#FCCB70"/>
<rect x="8" y="36" width="8" height="8" fill="#FCCB70"/>
<path d="M24 7C24 3.13401 27.134 0 31 0H48V44H24V7Z" fill="#FCCB70"/>
<path d="M48 0H338C341.866 0 345 3.13401 345 7V31C345 34.866 341.866 38 338 38H48V0Z" fill="#FCCB70"/>
<path d="M52.3111 16.1662H50.3168C50.2401 15.7401 50.0973 15.3651 49.8885 15.0412C49.6797 14.7173 49.424 14.4425 49.1214 14.2166C48.8189 13.9908 48.4801 13.8203 48.1051 13.7053C47.7344 13.5902 47.3402 13.5327 46.9226 13.5327C46.1683 13.5327 45.4929 13.7223 44.8963 14.1016C44.304 14.4808 43.8352 15.0369 43.4901 15.7699C43.1491 16.5028 42.9787 17.3977 42.9787 18.4545C42.9787 19.5199 43.1491 20.419 43.4901 21.152C43.8352 21.8849 44.3061 22.4389 44.9027 22.8139C45.4993 23.1889 46.1705 23.3764 46.9162 23.3764C47.3295 23.3764 47.7216 23.321 48.0923 23.2102C48.4673 23.0952 48.8061 22.9268 49.1087 22.7053C49.4112 22.4837 49.6669 22.2131 49.8757 21.8935C50.0888 21.5696 50.2358 21.1989 50.3168 20.7812L52.3111 20.7876C52.2045 21.4311 51.9979 22.0234 51.6911 22.5646C51.3885 23.1016 50.9986 23.5661 50.5213 23.9581C50.0483 24.3459 49.5071 24.6463 48.8977 24.8594C48.2884 25.0724 47.6236 25.179 46.9034 25.179C45.7699 25.179 44.7599 24.9105 43.8736 24.3736C42.9872 23.8324 42.2884 23.0589 41.777 22.0533C41.2699 21.0476 41.0163 19.848 41.0163 18.4545C41.0163 17.0568 41.272 15.8572 41.7834 14.8558C42.2947 13.8501 42.9936 13.0788 43.88 12.5419C44.7663 12.0007 45.7741 11.7301 46.9034 11.7301C47.598 11.7301 48.2457 11.8303 48.8466 12.0305C49.4517 12.2266 49.995 12.5163 50.4766 12.8999C50.9581 13.2791 51.3565 13.7436 51.6719 14.2933C51.9872 14.8388 52.2003 15.4631 52.3111 16.1662ZM58.2968 25.1982C57.3763 25.1982 56.5731 24.9872 55.887 24.5653C55.2009 24.1435 54.6682 23.5533 54.289 22.7947C53.9097 22.0362 53.7201 21.1499 53.7201 20.1357C53.7201 19.1172 53.9097 18.2266 54.289 17.4638C54.6682 16.701 55.2009 16.1087 55.887 15.6868C56.5731 15.2649 57.3763 15.054 58.2968 15.054C59.2172 15.054 60.0205 15.2649 60.7066 15.6868C61.3927 16.1087 61.9253 16.701 62.3046 17.4638C62.6839 18.2266 62.8735 19.1172 62.8735 20.1357C62.8735 21.1499 62.6839 22.0362 62.3046 22.7947C61.9253 23.5533 61.3927 24.1435 60.7066 24.5653C60.0205 24.9872 59.2172 25.1982 58.2968 25.1982ZM58.3032 23.5938C58.8998 23.5938 59.3941 23.4361 59.7861 23.1207C60.1782 22.8054 60.4679 22.3857 60.6554 21.8615C60.8472 21.3374 60.9431 20.7599 60.9431 20.1293C60.9431 19.5028 60.8472 18.9276 60.6554 18.4034C60.4679 17.875 60.1782 17.451 59.7861 17.1314C59.3941 16.8118 58.8998 16.652 58.3032 16.652C57.7023 16.652 57.2037 16.8118 56.8074 17.1314C56.4154 17.451 56.1235 17.875 55.9317 18.4034C55.7442 18.9276 55.6505 19.5028 55.6505 20.1293C55.6505 20.7599 55.7442 21.3374 55.9317 21.8615C56.1235 22.3857 56.4154 22.8054 56.8074 23.1207C57.2037 23.4361 57.7023 23.5938 58.3032 23.5938ZM66.5581 19.1705V25H64.6468V11.9091H66.5325V16.7798H66.6539C66.884 16.2514 67.2356 15.8317 67.7086 15.5206C68.1816 15.2095 68.7995 15.054 69.5623 15.054C70.2356 15.054 70.8237 15.1925 71.3265 15.4695C71.8336 15.7464 72.2257 16.1598 72.5027 16.7095C72.7839 17.255 72.9245 17.9368 72.9245 18.755V25H71.0133V18.9851C71.0133 18.2649 70.8279 17.7067 70.4572 17.3104C70.0865 16.9098 69.5708 16.7095 68.9103 16.7095C68.4586 16.7095 68.0538 16.8054 67.6958 16.9972C67.3421 17.1889 67.063 17.4702 66.8585 17.8409C66.6582 18.2074 66.5581 18.6506 66.5581 19.1705ZM79.2506 25.1982C78.3302 25.1982 77.5269 24.9872 76.8408 24.5653C76.1547 24.1435 75.6221 23.5533 75.2428 22.7947C74.8635 22.0362 74.6739 21.1499 74.6739 20.1357C74.6739 19.1172 74.8635 18.2266 75.2428 17.4638C75.6221 16.701 76.1547 16.1087 76.8408 15.6868C77.5269 15.2649 78.3302 15.054 79.2506 15.054C80.1711 15.054 80.9743 15.2649 81.6604 15.6868C82.3465 16.1087 82.8792 16.701 83.2584 17.4638C83.6377 18.2266 83.8273 19.1172 83.8273 20.1357C83.8273 21.1499 83.6377 22.0362 83.2584 22.7947C82.8792 23.5533 82.3465 24.1435 81.6604 24.5653C80.9743 24.9872 80.1711 25.1982 79.2506 25.1982ZM79.257 23.5938C79.8536 23.5938 80.3479 23.4361 80.74 23.1207C81.132 22.8054 81.4218 22.3857 81.6093 21.8615C81.801 21.3374 81.8969 20.7599 81.8969 20.1293C81.8969 19.5028 81.801 18.9276 81.6093 18.4034C81.4218 17.875 81.132 17.451 80.74 17.1314C80.3479 16.8118 79.8536 16.652 79.257 16.652C78.6561 16.652 78.1576 16.8118 77.7613 17.1314C77.3692 17.451 77.0773 17.875 76.8856 18.4034C76.6981 18.9276 76.6043 19.5028 76.6043 20.1293C76.6043 20.7599 76.6981 21.3374 76.8856 21.8615C77.0773 22.3857 77.3692 22.8054 77.7613 23.1207C78.1576 23.4361 78.6561 23.5938 79.257 23.5938ZM85.6007 25V15.1818H87.448V16.7415H87.5502C87.7292 16.2131 88.0446 15.7976 88.4963 15.495C88.9522 15.1882 89.4678 15.0348 90.0431 15.0348C90.1625 15.0348 90.3031 15.0391 90.465 15.0476C90.6312 15.0561 90.7612 15.0668 90.8549 15.0795V16.9077C90.7782 16.8864 90.6419 16.8629 90.4458 16.8374C90.2498 16.8075 90.0538 16.7926 89.8578 16.7926C89.4061 16.7926 89.0034 16.8885 88.6497 17.0803C88.3002 17.2678 88.0232 17.5298 87.8187 17.8665C87.6142 18.1989 87.5119 18.5781 87.5119 19.0043V25H85.6007ZM97.312 15.1818V16.7159H91.9491V15.1818H97.312ZM93.3873 12.8295H95.2985V22.1172C95.2985 22.4879 95.3539 22.767 95.4647 22.9545C95.5755 23.1378 95.7183 23.2635 95.893 23.3317C96.072 23.3956 96.2659 23.4276 96.4747 23.4276C96.6281 23.4276 96.7623 23.4169 96.8774 23.3956C96.9924 23.3743 97.0819 23.3572 97.1458 23.3445L97.491 24.9233C97.3802 24.9659 97.2226 25.0085 97.018 25.0511C96.8135 25.098 96.5578 25.1236 96.251 25.1278C95.7481 25.1364 95.2794 25.0469 94.8447 24.8594C94.4101 24.6719 94.0585 24.3821 93.79 23.9901C93.5216 23.598 93.3873 23.1058 93.3873 22.5135V12.8295ZM108.379 25L110.527 11.9091H112.061L109.913 25H108.379ZM102.454 21.4972L102.703 19.9631H112.623L112.374 21.4972H102.454ZM103.777 25L105.924 11.9091H107.459L105.311 25H103.777ZM103.214 16.946L103.463 15.4119H113.384L113.135 16.946H103.214ZM119.103 25.179C118.225 25.179 117.441 25.0277 116.751 24.7251C116.064 24.4226 115.521 24.0028 115.121 23.4659C114.724 22.9247 114.511 22.2983 114.481 21.5866H116.488C116.514 21.9744 116.644 22.3111 116.878 22.5966C117.117 22.8778 117.428 23.0952 117.812 23.2486C118.195 23.402 118.621 23.4787 119.09 23.4787C119.606 23.4787 120.062 23.3892 120.458 23.2102C120.858 23.0312 121.172 22.782 121.398 22.4624C121.623 22.1385 121.736 21.7656 121.736 21.3438C121.736 20.9048 121.623 20.5192 121.398 20.1868C121.176 19.8501 120.85 19.5859 120.42 19.3942C119.993 19.2024 119.478 19.1065 118.873 19.1065H117.767V17.4957H118.873C119.358 17.4957 119.785 17.4084 120.151 17.2337C120.522 17.0589 120.812 16.8161 121.02 16.505C121.229 16.1896 121.334 15.821 121.334 15.3991C121.334 14.9943 121.242 14.6428 121.059 14.3445C120.88 14.0419 120.624 13.8054 120.292 13.6349C119.964 13.4645 119.576 13.3793 119.128 13.3793C118.702 13.3793 118.304 13.4581 117.933 13.6158C117.567 13.7692 117.268 13.9908 117.038 14.2805C116.808 14.5661 116.684 14.9091 116.667 15.3097H114.756C114.777 14.6023 114.986 13.9801 115.383 13.4432C115.783 12.9062 116.312 12.4865 116.968 12.1839C117.624 11.8814 118.353 11.7301 119.154 11.7301C119.993 11.7301 120.718 11.8942 121.327 12.2223C121.941 12.5462 122.414 12.9787 122.746 13.5199C123.083 14.0611 123.249 14.6534 123.245 15.2969C123.249 16.0298 123.045 16.652 122.631 17.1634C122.222 17.6747 121.677 18.0178 120.995 18.1925V18.2947C121.864 18.4268 122.537 18.772 123.015 19.3303C123.496 19.8885 123.735 20.581 123.731 21.4077C123.735 22.1278 123.535 22.7734 123.13 23.3445C122.729 23.9155 122.182 24.3651 121.487 24.6932C120.792 25.017 119.998 25.179 119.103 25.179ZM130.344 25.179C129.467 25.179 128.682 25.0277 127.992 24.7251C127.306 24.4226 126.763 24.0028 126.362 23.4659C125.966 22.9247 125.753 22.2983 125.723 21.5866H127.73C127.756 21.9744 127.886 22.3111 128.12 22.5966C128.359 22.8778 128.67 23.0952 129.053 23.2486C129.437 23.402 129.863 23.4787 130.332 23.4787C130.847 23.4787 131.303 23.3892 131.699 23.2102C132.1 23.0312 132.413 22.782 132.639 22.4624C132.865 22.1385 132.978 21.7656 132.978 21.3438C132.978 20.9048 132.865 20.5192 132.639 20.1868C132.417 19.8501 132.092 19.5859 131.661 19.3942C131.235 19.2024 130.719 19.1065 130.114 19.1065H129.008V17.4957H130.114C130.6 17.4957 131.026 17.4084 131.393 17.2337C131.763 17.0589 132.053 16.8161 132.262 16.505C132.471 16.1896 132.575 15.821 132.575 15.3991C132.575 14.9943 132.484 14.6428 132.3 14.3445C132.121 14.0419 131.866 13.8054 131.533 13.6349C131.205 13.4645 130.817 13.3793 130.37 13.3793C129.944 13.3793 129.545 13.4581 129.175 13.6158C128.808 13.7692 128.51 13.9908 128.28 14.2805C128.05 14.5661 127.926 14.9091 127.909 15.3097H125.998C126.019 14.6023 126.228 13.9801 126.624 13.4432C127.025 12.9062 127.553 12.4865 128.209 12.1839C128.866 11.8814 129.594 11.7301 130.395 11.7301C131.235 11.7301 131.959 11.8942 132.569 12.2223C133.182 12.5462 133.655 12.9787 133.988 13.5199C134.324 14.0611 134.491 14.6534 134.486 15.2969C134.491 16.0298 134.286 16.652 133.873 17.1634C133.464 17.6747 132.918 18.0178 132.236 18.1925V18.2947C133.106 18.4268 133.779 18.772 134.256 19.3303C134.738 19.8885 134.976 20.581 134.972 21.4077C134.976 22.1278 134.776 22.7734 134.371 23.3445C133.971 23.9155 133.423 24.3651 132.729 24.6932C132.034 25.017 131.239 25.179 130.344 25.179ZM141.599 25.179C141.015 25.1705 140.44 25.0639 139.873 24.8594C139.31 24.6548 138.799 24.3139 138.339 23.8366C137.879 23.3594 137.51 22.718 137.233 21.9126C136.96 21.1072 136.824 20.1016 136.824 18.8956C136.824 17.7536 136.937 16.7393 137.163 15.853C137.393 14.9666 137.723 14.2188 138.153 13.6094C138.584 12.9957 139.104 12.5291 139.713 12.2095C140.322 11.8899 141.006 11.7301 141.765 11.7301C142.545 11.7301 143.237 11.8835 143.842 12.1903C144.447 12.4972 144.937 12.9212 145.312 13.4624C145.692 14.0036 145.932 14.6193 146.035 15.3097H144.085C143.953 14.7642 143.691 14.3189 143.299 13.9737C142.907 13.6286 142.396 13.456 141.765 13.456C140.806 13.456 140.058 13.8736 139.521 14.7088C138.989 15.544 138.72 16.7053 138.716 18.1925H138.812C139.038 17.8217 139.315 17.5064 139.643 17.2464C139.975 16.9822 140.346 16.7798 140.755 16.6392C141.168 16.4943 141.603 16.4219 142.059 16.4219C142.817 16.4219 143.504 16.6072 144.117 16.978C144.735 17.3445 145.227 17.8516 145.594 18.4993C145.96 19.147 146.143 19.8885 146.143 20.7237C146.143 21.5589 145.954 22.3153 145.575 22.9929C145.2 23.6705 144.671 24.2074 143.989 24.6037C143.307 24.9957 142.511 25.1875 141.599 25.179ZM141.592 23.517C142.095 23.517 142.545 23.3935 142.941 23.1463C143.337 22.8991 143.651 22.5668 143.881 22.1491C144.111 21.7315 144.226 21.2649 144.226 20.7493C144.226 20.2464 144.113 19.7884 143.887 19.375C143.665 18.9616 143.359 18.6335 142.967 18.3906C142.579 18.1477 142.136 18.0263 141.637 18.0263C141.258 18.0263 140.906 18.0987 140.582 18.2436C140.263 18.3885 139.982 18.5888 139.739 18.8445C139.496 19.1001 139.304 19.3942 139.163 19.7266C139.027 20.0547 138.959 20.402 138.959 20.7685C138.959 21.2585 139.072 21.7124 139.298 22.13C139.528 22.5476 139.841 22.8842 140.237 23.1399C140.638 23.3913 141.089 23.517 141.592 23.517ZM159.898 17.5788L158.166 17.8857C158.094 17.6641 157.978 17.4531 157.821 17.2528C157.667 17.0526 157.459 16.8885 157.194 16.7607C156.93 16.6328 156.6 16.5689 156.204 16.5689C155.662 16.5689 155.211 16.6903 154.849 16.9332C154.486 17.1719 154.305 17.4808 154.305 17.8601C154.305 18.1882 154.427 18.4524 154.67 18.6527C154.912 18.853 155.304 19.017 155.846 19.1449L157.405 19.5028C158.309 19.7116 158.982 20.0334 159.425 20.468C159.868 20.9027 160.09 21.4673 160.09 22.1619C160.09 22.75 159.92 23.2741 159.579 23.7344C159.242 24.1903 158.771 24.5483 158.166 24.8082C157.565 25.0682 156.868 25.1982 156.076 25.1982C154.976 25.1982 154.079 24.9638 153.385 24.495C152.69 24.022 152.264 23.3509 152.106 22.4815L153.954 22.2003C154.069 22.6818 154.305 23.0462 154.663 23.2933C155.021 23.5362 155.488 23.6577 156.063 23.6577C156.689 23.6577 157.19 23.5277 157.565 23.2678C157.94 23.0036 158.128 22.6818 158.128 22.3026C158.128 21.9957 158.013 21.7379 157.782 21.5291C157.557 21.3203 157.209 21.1626 156.741 21.0561L155.079 20.6918C154.162 20.483 153.485 20.1506 153.046 19.6946C152.611 19.2386 152.394 18.6612 152.394 17.9624C152.394 17.3828 152.556 16.8757 152.88 16.4411C153.204 16.0064 153.651 15.6676 154.222 15.4247C154.793 15.1776 155.447 15.054 156.184 15.054C157.246 15.054 158.081 15.2841 158.69 15.7443C159.299 16.2003 159.702 16.8118 159.898 17.5788ZM166.414 15.1818V16.7159H161.052V15.1818H166.414ZM162.49 12.8295H164.401V22.1172C164.401 22.4879 164.456 22.767 164.567 22.9545C164.678 23.1378 164.821 23.2635 164.995 23.3317C165.174 23.3956 165.368 23.4276 165.577 23.4276C165.731 23.4276 165.865 23.4169 165.98 23.3956C166.095 23.3743 166.184 23.3572 166.248 23.3445L166.593 24.9233C166.483 24.9659 166.325 25.0085 166.12 25.0511C165.916 25.098 165.66 25.1236 165.353 25.1278C164.851 25.1364 164.382 25.0469 163.947 24.8594C163.512 24.6719 163.161 24.3821 162.892 23.9901C162.624 23.598 162.49 23.1058 162.49 22.5135V12.8295ZM171.026 25.2173C170.404 25.2173 169.841 25.1023 169.338 24.8722C168.836 24.6378 168.437 24.299 168.143 23.8558C167.853 23.4126 167.708 22.8693 167.708 22.2259C167.708 21.6719 167.815 21.2159 168.028 20.858C168.241 20.5 168.529 20.2166 168.891 20.0078C169.253 19.799 169.658 19.6413 170.105 19.5348C170.553 19.4283 171.009 19.3473 171.473 19.2919C172.061 19.2237 172.539 19.1683 172.905 19.1257C173.272 19.0788 173.538 19.0043 173.704 18.902C173.87 18.7997 173.953 18.6335 173.953 18.4034V18.3587C173.953 17.8004 173.796 17.3679 173.48 17.0611C173.169 16.7543 172.705 16.6009 172.087 16.6009C171.443 16.6009 170.936 16.7436 170.566 17.0291C170.199 17.3104 169.946 17.6236 169.805 17.9688L168.009 17.5597C168.222 16.9631 168.533 16.4815 168.942 16.1151C169.355 15.7443 169.831 15.4759 170.367 15.3097C170.904 15.1392 171.469 15.054 172.061 15.054C172.453 15.054 172.869 15.1009 173.308 15.1946C173.751 15.2841 174.164 15.4503 174.548 15.6932C174.936 15.9361 175.253 16.2834 175.5 16.7351C175.747 17.1825 175.871 17.7642 175.871 18.4801V25H174.005V23.6577H173.928C173.804 23.9048 173.619 24.1477 173.372 24.3864C173.125 24.625 172.807 24.8232 172.419 24.9808C172.032 25.1385 171.567 25.2173 171.026 25.2173ZM171.441 23.6832C171.97 23.6832 172.421 23.5788 172.796 23.37C173.176 23.1612 173.463 22.8885 173.659 22.5518C173.86 22.2109 173.96 21.8466 173.96 21.4588V20.1932C173.892 20.2614 173.76 20.3253 173.564 20.3849C173.372 20.4403 173.152 20.4893 172.905 20.532C172.658 20.5703 172.417 20.6065 172.183 20.6406C171.948 20.6705 171.752 20.696 171.595 20.7173C171.224 20.7642 170.885 20.843 170.578 20.9538C170.276 21.0646 170.033 21.2244 169.85 21.4332C169.671 21.6378 169.581 21.9105 169.581 22.2514C169.581 22.7244 169.756 23.0824 170.105 23.3253C170.455 23.5639 170.9 23.6832 171.441 23.6832ZM178.057 25V15.1818H179.904V16.7415H180.006C180.185 16.2131 180.501 15.7976 180.952 15.495C181.408 15.1882 181.924 15.0348 182.499 15.0348C182.618 15.0348 182.759 15.0391 182.921 15.0476C183.087 15.0561 183.217 15.0668 183.311 15.0795V16.9077C183.234 16.8864 183.098 16.8629 182.902 16.8374C182.706 16.8075 182.51 16.7926 182.314 16.7926C181.862 16.7926 181.459 16.8885 181.106 17.0803C180.756 17.2678 180.479 17.5298 180.275 17.8665C180.07 18.1989 179.968 18.5781 179.968 19.0043V25H178.057ZM189.768 15.1818V16.7159H184.405V15.1818H189.768ZM185.843 12.8295H187.755V22.1172C187.755 22.4879 187.81 22.767 187.921 22.9545C188.032 23.1378 188.174 23.2635 188.349 23.3317C188.528 23.3956 188.722 23.4276 188.931 23.4276C189.084 23.4276 189.218 23.4169 189.333 23.3956C189.448 23.3743 189.538 23.3572 189.602 23.3445L189.947 24.9233C189.836 24.9659 189.679 25.0085 189.474 25.0511C189.269 25.098 189.014 25.1236 188.707 25.1278C188.204 25.1364 187.735 25.0469 187.301 24.8594C186.866 24.6719 186.515 24.3821 186.246 23.9901C185.978 23.598 185.843 23.1058 185.843 22.5135V12.8295ZM198.721 17.5788L196.989 17.8857C196.917 17.6641 196.802 17.4531 196.644 17.2528C196.49 17.0526 196.282 16.8885 196.017 16.7607C195.753 16.6328 195.423 16.5689 195.027 16.5689C194.485 16.5689 194.034 16.6903 193.672 16.9332C193.309 17.1719 193.128 17.4808 193.128 17.8601C193.128 18.1882 193.25 18.4524 193.493 18.6527C193.735 18.853 194.128 19.017 194.669 19.1449L196.228 19.5028C197.132 19.7116 197.805 20.0334 198.248 20.468C198.691 20.9027 198.913 21.4673 198.913 22.1619C198.913 22.75 198.743 23.2741 198.402 23.7344C198.065 24.1903 197.594 24.5483 196.989 24.8082C196.388 25.0682 195.691 25.1982 194.899 25.1982C193.799 25.1982 192.902 24.9638 192.208 24.495C191.513 24.022 191.087 23.3509 190.929 22.4815L192.777 22.2003C192.892 22.6818 193.128 23.0462 193.486 23.2933C193.844 23.5362 194.311 23.6577 194.886 23.6577C195.512 23.6577 196.013 23.5277 196.388 23.2678C196.763 23.0036 196.951 22.6818 196.951 22.3026C196.951 21.9957 196.836 21.7379 196.606 21.5291C196.38 21.3203 196.032 21.1626 195.564 21.0561L193.902 20.6918C192.985 20.483 192.308 20.1506 191.869 19.6946C191.434 19.2386 191.217 18.6612 191.217 17.9624C191.217 17.3828 191.379 16.8757 191.703 16.4411C192.027 16.0064 192.474 15.6676 193.045 15.4247C193.616 15.1776 194.27 15.054 195.007 15.054C196.069 15.054 196.904 15.2841 197.513 15.7443C198.123 16.2003 198.525 16.8118 198.721 17.5788ZM209.194 25.1982C208.273 25.1982 207.47 24.9872 206.784 24.5653C206.098 24.1435 205.565 23.5533 205.186 22.7947C204.807 22.0362 204.617 21.1499 204.617 20.1357C204.617 19.1172 204.807 18.2266 205.186 17.4638C205.565 16.701 206.098 16.1087 206.784 15.6868C207.47 15.2649 208.273 15.054 209.194 15.054C210.114 15.054 210.917 15.2649 211.604 15.6868C212.29 16.1087 212.822 16.701 213.202 17.4638C213.581 18.2266 213.77 19.1172 213.77 20.1357C213.77 21.1499 213.581 22.0362 213.202 22.7947C212.822 23.5533 212.29 24.1435 211.604 24.5653C210.917 24.9872 210.114 25.1982 209.194 25.1982ZM209.2 23.5938C209.797 23.5938 210.291 23.4361 210.683 23.1207C211.075 22.8054 211.365 22.3857 211.552 21.8615C211.744 21.3374 211.84 20.7599 211.84 20.1293C211.84 19.5028 211.744 18.9276 211.552 18.4034C211.365 17.875 211.075 17.451 210.683 17.1314C210.291 16.8118 209.797 16.652 209.2 16.652C208.599 16.652 208.101 16.8118 207.704 17.1314C207.312 17.451 207.02 17.875 206.829 18.4034C206.641 18.9276 206.547 19.5028 206.547 20.1293C206.547 20.7599 206.641 21.3374 206.829 21.8615C207.02 22.3857 207.312 22.8054 207.704 23.1207C208.101 23.4361 208.599 23.5938 209.2 23.5938ZM217.455 19.1705V25H215.544V15.1818H217.378V16.7798H217.5C217.726 16.2599 218.079 15.8423 218.561 15.527C219.047 15.2116 219.658 15.054 220.395 15.054C221.064 15.054 221.65 15.1946 222.153 15.4759C222.656 15.7528 223.046 16.1662 223.323 16.7159C223.6 17.2656 223.738 17.9453 223.738 18.755V25H221.827V18.9851C221.827 18.2734 221.642 17.7173 221.271 17.3168C220.9 16.9119 220.391 16.7095 219.743 16.7095C219.3 16.7095 218.906 16.8054 218.561 16.9972C218.22 17.1889 217.949 17.4702 217.749 17.8409C217.553 18.2074 217.455 18.6506 217.455 19.1705ZM241.87 18.4545C241.87 19.8523 241.614 21.054 241.103 22.0597C240.592 23.0611 239.891 23.8324 239 24.3736C238.114 24.9105 237.106 25.179 235.977 25.179C234.843 25.179 233.831 24.9105 232.94 24.3736C232.054 23.8324 231.355 23.0589 230.844 22.0533C230.332 21.0476 230.077 19.848 230.077 18.4545C230.077 17.0568 230.332 15.8572 230.844 14.8558C231.355 13.8501 232.054 13.0788 232.94 12.5419C233.831 12.0007 234.843 11.7301 235.977 11.7301C237.106 11.7301 238.114 12.0007 239 12.5419C239.891 13.0788 240.592 13.8501 241.103 14.8558C241.614 15.8572 241.87 17.0568 241.87 18.4545ZM239.914 18.4545C239.914 17.3892 239.742 16.4922 239.396 15.7635C239.055 15.0305 238.587 14.4766 237.99 14.1016C237.398 13.7223 236.727 13.5327 235.977 13.5327C235.222 13.5327 234.549 13.7223 233.957 14.1016C233.364 14.4766 232.896 15.0305 232.551 15.7635C232.21 16.4922 232.039 17.3892 232.039 18.4545C232.039 19.5199 232.21 20.419 232.551 21.152C232.896 21.8807 233.364 22.4347 233.957 22.8139C234.549 23.1889 235.222 23.3764 235.977 23.3764C236.727 23.3764 237.398 23.1889 237.99 22.8139C238.587 22.4347 239.055 21.8807 239.396 21.152C239.742 20.419 239.914 19.5199 239.914 18.4545ZM247.955 25.1982C247.005 25.1982 246.186 24.983 245.5 24.5526C244.819 24.1179 244.294 23.5192 243.928 22.7564C243.561 21.9936 243.378 21.12 243.378 20.1357C243.378 19.1385 243.566 18.2585 243.941 17.4957C244.316 16.7287 244.844 16.13 245.526 15.6996C246.208 15.2692 247.011 15.054 247.936 15.054C248.681 15.054 249.346 15.1925 249.93 15.4695C250.514 15.7422 250.985 16.1257 251.343 16.62C251.705 17.1143 251.92 17.6918 251.988 18.3523H250.128C250.026 17.892 249.792 17.4957 249.425 17.1634C249.063 16.831 248.577 16.6648 247.968 16.6648C247.435 16.6648 246.968 16.8054 246.568 17.0866C246.172 17.3636 245.863 17.7599 245.641 18.2756C245.419 18.7869 245.309 19.392 245.309 20.0909C245.309 20.8068 245.417 21.4247 245.635 21.9446C245.852 22.4645 246.159 22.8672 246.555 23.1527C246.956 23.4382 247.426 23.581 247.968 23.581C248.33 23.581 248.658 23.5149 248.952 23.3828C249.25 23.2464 249.5 23.0526 249.7 22.8011C249.904 22.5497 250.047 22.2472 250.128 21.8935H251.988C251.92 22.5284 251.713 23.0952 251.368 23.5938C251.023 24.0923 250.561 24.4844 249.981 24.7699C249.406 25.0554 248.73 25.1982 247.955 25.1982ZM258.255 15.1818V16.7159H252.892V15.1818H258.255ZM254.331 12.8295H256.242V22.1172C256.242 22.4879 256.297 22.767 256.408 22.9545C256.519 23.1378 256.661 23.2635 256.836 23.3317C257.015 23.3956 257.209 23.4276 257.418 23.4276C257.571 23.4276 257.706 23.4169 257.821 23.3956C257.936 23.3743 258.025 23.3572 258.089 23.3445L258.434 24.9233C258.323 24.9659 258.166 25.0085 257.961 25.0511C257.757 25.098 257.501 25.1236 257.194 25.1278C256.691 25.1364 256.223 25.0469 255.788 24.8594C255.353 24.6719 255.002 24.3821 254.733 23.9901C254.465 23.598 254.331 23.1058 254.331 22.5135V12.8295ZM264.04 25.1982C263.119 25.1982 262.316 24.9872 261.63 24.5653C260.944 24.1435 260.411 23.5533 260.032 22.7947C259.653 22.0362 259.463 21.1499 259.463 20.1357C259.463 19.1172 259.653 18.2266 260.032 17.4638C260.411 16.701 260.944 16.1087 261.63 15.6868C262.316 15.2649 263.119 15.054 264.04 15.054C264.96 15.054 265.763 15.2649 266.449 15.6868C267.135 16.1087 267.668 16.701 268.047 17.4638C268.427 18.2266 268.616 19.1172 268.616 20.1357C268.616 21.1499 268.427 22.0362 268.047 22.7947C267.668 23.5533 267.135 24.1435 266.449 24.5653C265.763 24.9872 264.96 25.1982 264.04 25.1982ZM264.046 23.5938C264.643 23.5938 265.137 23.4361 265.529 23.1207C265.921 22.8054 266.211 22.3857 266.398 21.8615C266.59 21.3374 266.686 20.7599 266.686 20.1293C266.686 19.5028 266.59 18.9276 266.398 18.4034C266.211 17.875 265.921 17.451 265.529 17.1314C265.137 16.8118 264.643 16.652 264.046 16.652C263.445 16.652 262.947 16.8118 262.55 17.1314C262.158 17.451 261.866 17.875 261.675 18.4034C261.487 18.9276 261.393 19.5028 261.393 20.1293C261.393 20.7599 261.487 21.3374 261.675 21.8615C261.866 22.3857 262.158 22.8054 262.55 23.1207C262.947 23.4361 263.445 23.5938 264.046 23.5938ZM270.543 25V11.9091H272.454V16.7734H272.569C272.68 16.5689 272.84 16.3324 273.049 16.0639C273.258 15.7955 273.547 15.5611 273.918 15.3608C274.289 15.1562 274.779 15.054 275.388 15.054C276.181 15.054 276.888 15.2543 277.51 15.6548C278.133 16.0554 278.62 16.6328 278.974 17.3871C279.332 18.1413 279.511 19.049 279.511 20.1101C279.511 21.1712 279.334 22.081 278.981 22.8395C278.627 23.5937 278.141 24.1754 277.523 24.5845C276.905 24.9893 276.2 25.1918 275.407 25.1918C274.811 25.1918 274.323 25.0916 273.944 24.8913C273.569 24.6911 273.275 24.4567 273.062 24.1882C272.848 23.9197 272.684 23.6811 272.569 23.4723H272.41V25H270.543ZM272.416 20.0909C272.416 20.7812 272.516 21.3864 272.716 21.9062C272.917 22.4261 273.206 22.8331 273.586 23.1271C273.965 23.4169 274.429 23.5618 274.979 23.5618C275.55 23.5618 276.027 23.4105 276.411 23.108C276.794 22.8011 277.084 22.3857 277.28 21.8615C277.481 21.3374 277.581 20.7472 277.581 20.0909C277.581 19.4432 277.483 18.8615 277.287 18.3459C277.095 17.8303 276.805 17.4233 276.417 17.125C276.034 16.8267 275.554 16.6776 274.979 16.6776C274.425 16.6776 273.956 16.8203 273.573 17.1058C273.194 17.3913 272.906 17.7898 272.71 18.3011C272.514 18.8125 272.416 19.4091 272.416 20.0909ZM285.529 25.1982C284.561 25.1982 283.728 24.9915 283.029 24.5781C282.335 24.1605 281.798 23.5746 281.419 22.8203C281.044 22.0618 280.856 21.1733 280.856 20.1548C280.856 19.1491 281.044 18.2628 281.419 17.4957C281.798 16.7287 282.326 16.13 283.004 15.6996C283.686 15.2692 284.483 15.054 285.395 15.054C285.949 15.054 286.485 15.1456 287.005 15.3288C287.525 15.5121 287.992 15.7997 288.405 16.1918C288.819 16.5838 289.145 17.093 289.383 17.7195C289.622 18.3416 289.741 19.098 289.741 19.9886V20.6662H281.936V19.2344H287.868C287.868 18.7315 287.766 18.2862 287.561 17.8984C287.357 17.5064 287.069 17.1974 286.699 16.9716C286.332 16.7457 285.902 16.6328 285.407 16.6328C284.87 16.6328 284.402 16.7649 284.001 17.0291C283.605 17.2891 283.298 17.63 283.081 18.0518C282.868 18.4695 282.761 18.9233 282.761 19.4134V20.532C282.761 21.1882 282.876 21.7464 283.106 22.2067C283.341 22.6669 283.667 23.0185 284.084 23.2614C284.502 23.5 284.99 23.6193 285.548 23.6193C285.91 23.6193 286.24 23.5682 286.539 23.4659C286.837 23.3594 287.095 23.2017 287.312 22.9929C287.529 22.7841 287.696 22.5263 287.811 22.2195L289.62 22.5455C289.475 23.0781 289.215 23.5447 288.84 23.9453C288.469 24.3416 288.002 24.6506 287.44 24.8722C286.882 25.0895 286.245 25.1982 285.529 25.1982ZM291.502 25V15.1818H293.349V16.7415H293.451C293.63 16.2131 293.946 15.7976 294.397 15.495C294.853 15.1882 295.369 15.0348 295.944 15.0348C296.063 15.0348 296.204 15.0391 296.366 15.0476C296.532 15.0561 296.662 15.0668 296.756 15.0795V16.9077C296.679 16.8864 296.543 16.8629 296.347 16.8374C296.151 16.8075 295.955 16.7926 295.759 16.7926C295.307 16.7926 294.904 16.8885 294.551 17.0803C294.201 17.2678 293.924 17.5298 293.72 17.8665C293.515 18.1989 293.413 18.5781 293.413 19.0043V25H291.502ZM307.395 11.9091V25H305.413V13.8906H305.336L302.204 15.9361V14.044L305.471 11.9091H307.395ZM315.146 25.179C314.562 25.1705 313.987 25.0639 313.42 24.8594C312.858 24.6548 312.346 24.3139 311.886 23.8366C311.426 23.3594 311.057 22.718 310.78 21.9126C310.508 21.1072 310.371 20.1016 310.371 18.8956C310.371 17.7536 310.484 16.7393 310.71 15.853C310.94 14.9666 311.27 14.2188 311.701 13.6094C312.131 12.9957 312.651 12.5291 313.26 12.2095C313.87 11.8899 314.554 11.7301 315.312 11.7301C316.092 11.7301 316.785 11.8835 317.39 12.1903C317.995 12.4972 318.485 12.9212 318.86 13.4624C319.239 14.0036 319.48 14.6193 319.582 15.3097H317.633C317.501 14.7642 317.238 14.3189 316.846 13.9737C316.454 13.6286 315.943 13.456 315.312 13.456C314.353 13.456 313.606 13.8736 313.069 14.7088C312.536 15.544 312.268 16.7053 312.263 18.1925H312.359C312.585 17.8217 312.862 17.5064 313.19 17.2464C313.523 16.9822 313.893 16.7798 314.302 16.6392C314.716 16.4943 315.15 16.4219 315.606 16.4219C316.365 16.4219 317.051 16.6072 317.665 16.978C318.282 17.3445 318.775 17.8516 319.141 18.4993C319.508 19.147 319.691 19.8885 319.691 20.7237C319.691 21.5589 319.501 22.3153 319.122 22.9929C318.747 23.6705 318.219 24.2074 317.537 24.6037C316.855 24.9957 316.058 25.1875 315.146 25.179ZM315.14 23.517C315.643 23.517 316.092 23.3935 316.488 23.1463C316.885 22.8991 317.198 22.5668 317.428 22.1491C317.658 21.7315 317.773 21.2649 317.773 20.7493C317.773 20.2464 317.66 19.7884 317.434 19.375C317.213 18.9616 316.906 18.6335 316.514 18.3906C316.126 18.1477 315.683 18.0263 315.184 18.0263C314.805 18.0263 314.454 18.0987 314.13 18.2436C313.81 18.3885 313.529 18.5888 313.286 18.8445C313.043 19.1001 312.851 19.3942 312.711 19.7266C312.574 20.0547 312.506 20.402 312.506 20.7685C312.506 21.2585 312.619 21.7124 312.845 22.13C313.075 22.5476 313.388 22.8842 313.785 23.1399C314.185 23.3913 314.637 23.517 315.14 23.517Z" fill="#1A1A1A"/>
</svg>
