<svg width="60" height="56" viewBox="0 0 60 56" fill="none" xmlns="http://www.w3.org/2000/svg">
<path d="M28 8H32V12H28V8Z" fill="#1A1A1A"/>
<path d="M24 4H28V8H24V4Z" fill="#1A1A1A"/>
<path d="M12 8H16V12H12V8Z" fill="#1A1A1A"/>
<path d="M8 12H12V16H8V12Z" fill="#1A1A1A"/>
<path d="M0 8H4V28H0V8Z" fill="#1A1A1A"/>
<path d="M4 4H8V8H4V4Z" fill="#1A1A1A"/>
<path d="M32 4H36V8H32V4Z" fill="#1A1A1A"/>
<path d="M36 0H52V4H36V0Z" fill="#1A1A1A"/>
<path d="M44 4H56V8H44V4Z" fill="#1A1A1A"/>
<path d="M48 8H60V12H48V8Z" fill="#1A1A1A"/>
<path d="M52 12H60V28H52V12Z" fill="#1A1A1A"/>
<path d="M48 28H56V32H48V28Z" fill="#1A1A1A"/>
<path d="M44 32H52V36H44V32Z" fill="#1A1A1A"/>
<path d="M40 36H48V40H40V36Z" fill="#1A1A1A"/>
<path d="M36 40H44V44H36V40Z" fill="#1A1A1A"/>
<path d="M32 44H40V48H32V44Z" fill="#1A1A1A"/>
<path d="M24 48H36V52H24V48Z" fill="#1A1A1A"/>
<path d="M28 52H32V56H28V52Z" fill="#1A1A1A"/>
<path d="M20 44H24V48H20V44Z" fill="#1A1A1A"/>
<path d="M16 40H20V44H16V40Z" fill="#1A1A1A"/>
<path d="M12 36H16V40H12V36Z" fill="#1A1A1A"/>
<path d="M8 32H12V36H8V32Z" fill="#1A1A1A"/>
<path d="M4 28H8V32H4V28Z" fill="#1A1A1A"/>
<path d="M8 0H24V4H8V0Z" fill="#1A1A1A"/>
</svg>
